<svg width="64" height="22" viewBox="0 0 64 22" fill="none" xmlns="http://www.w3.org/2000/svg">
<g clip-path="url(#clip0_12273_6444)">
<path d="M62.0067 13.4256L63.7822 14.6092C63.206 15.4579 61.8277 16.9142 59.4449 16.9142C56.4859 16.9142 54.2822 14.6248 54.2822 11.7124C54.2822 8.6133 56.5092 6.5108 59.1957 6.5108C61.8977 6.5108 63.2215 8.65993 63.6498 9.82018L63.8835 10.4121L56.922 13.2932C57.4515 14.3367 58.277 14.8662 59.4449 14.8662C60.613 14.8662 61.4227 14.2899 62.0067 13.4256ZM56.5482 11.5491L61.197 9.6178C60.94 8.97155 60.177 8.51218 59.2657 8.51218C58.1056 8.51218 56.4937 9.54005 56.5482 11.5491Z" fill="#FF302F"/>
<path d="M50.9258 1.20795H53.1683V16.4392H50.9258V1.20795Z" fill="#20B15A"/>
<path d="M47.3905 6.91568H49.5553V16.1666C49.5553 20.0054 47.2893 21.5862 44.6105 21.5862C42.0876 21.5862 40.5693 19.8887 40.0008 18.5104L41.9864 17.6849C42.3445 18.5337 43.2089 19.5383 44.6105 19.5383C46.3314 19.5383 47.3905 18.4714 47.3905 16.4781V15.7306H47.3126C46.7986 16.3534 45.8175 16.9141 44.5716 16.9141C41.9708 16.9141 39.5879 14.6481 39.5879 11.7281C39.5879 8.7923 41.9708 6.50305 44.5716 6.50305C45.8098 6.50305 46.7986 7.05593 47.3126 7.6633H47.3905V6.91568ZM47.5461 11.7281C47.5461 9.8903 46.3236 8.55093 44.7663 8.55093C43.1933 8.55093 41.8695 9.8903 41.8695 11.7281C41.8695 13.5423 43.1933 14.8583 44.7663 14.8583C46.3238 14.8662 47.5463 13.5423 47.5463 11.7281" fill="#3686F7"/>
<path d="M27.2773 11.6891C27.2773 14.687 24.9413 16.8907 22.0756 16.8907C19.2101 16.8907 16.874 14.6793 16.874 11.6891C16.874 8.67555 19.2101 6.47968 22.0756 6.47968C24.9413 6.47968 27.2773 8.67555 27.2773 11.6891ZM25.0035 11.6891C25.0035 9.8203 23.6485 8.5353 22.0756 8.5353C20.5028 8.5353 19.1478 9.8203 19.1478 11.6891C19.1478 13.5423 20.5028 14.8428 22.0756 14.8428C23.6486 14.8428 25.0035 13.5423 25.0035 11.6891Z" fill="#FF302F"/>
<path d="M38.6386 11.7124C38.6386 14.7104 36.3025 16.9141 33.437 16.9141C30.5714 16.9141 28.2354 14.7103 28.2354 11.7124C28.2354 8.69893 30.5714 6.5108 33.437 6.5108C36.3025 6.5108 38.6386 8.69118 38.6386 11.7124ZM36.357 11.7124C36.357 9.84368 35.0021 8.55868 33.4291 8.55868C31.8561 8.55868 30.5012 9.84368 30.5012 11.7124C30.5012 13.5657 31.8562 14.8662 33.4291 14.8662C35.0099 14.8662 36.357 13.5579 36.357 11.7124Z" fill="#FFBA40"/>
<path d="M8.32352 14.6325C5.06077 14.6325 2.50677 12.0005 2.50677 8.73778C2.50677 5.47515 5.06077 2.84315 8.32352 2.84315C10.0834 2.84315 11.3681 3.53615 12.3181 4.4239L13.8834 2.85878C12.5596 1.58953 10.792 0.623779 8.32352 0.623779C3.8539 0.623904 0.0927734 4.26828 0.0927734 8.73778C0.0927734 13.2073 3.8539 16.8518 8.32352 16.8518C10.7375 16.8518 12.5596 16.0575 13.9846 14.578C15.4485 13.114 15.9001 11.0583 15.9001 9.3919C15.9001 8.87015 15.8379 8.3329 15.7678 7.93578H8.32352V10.1005H13.6264C13.4706 11.4555 13.0424 12.3822 12.4116 13.0128C11.6485 13.7838 10.4416 14.6325 8.32352 14.6325Z" fill="#3686F7"/>
</g>
<defs>
<clipPath id="clip0_12273_6444">
<rect width="64" height="21" fill="white" transform="translate(0 0.591553)"/>
</clipPath>
</defs>
</svg>
