<svg width="156" height="52" viewBox="0 0 156 52" fill="none" xmlns="http://www.w3.org/2000/svg">
<g clip-path="url(#clip0_12257_903)">
<path d="M151.141 31.7598L155.469 34.6344C154.064 36.6956 150.705 40.2322 144.896 40.2322C137.684 40.2322 132.312 34.6723 132.312 27.5994C132.312 20.073 137.741 14.9669 144.289 14.9669C150.875 14.9669 154.102 20.1862 155.146 23.0039L155.716 24.4414L138.747 31.4384C140.038 33.9726 142.05 35.2585 144.896 35.2585C147.744 35.2585 149.717 33.859 151.141 31.7598ZM137.836 27.2026L149.167 22.5125C148.541 20.943 146.681 19.8274 144.46 19.8274C141.632 19.8274 137.703 22.3236 137.836 27.2026Z" fill="#FF302F"/>
<path d="M124.132 2.08847H129.598V39.0787H124.132V2.08847Z" fill="#20B15A"/>
<path d="M115.515 15.9501H120.791V38.4166C120.791 47.7395 115.268 51.5785 108.738 51.5785C102.589 51.5785 98.8879 47.456 97.5022 44.1088L102.342 42.104C103.215 44.1653 105.322 46.6051 108.738 46.6051C112.933 46.6051 115.515 44.0141 115.515 39.1731V37.3577H115.325C114.072 38.8704 111.681 40.2319 108.644 40.2319C102.304 40.2319 96.4958 34.7288 96.4958 27.6373C96.4958 20.5077 102.304 14.9481 108.644 14.9481C111.662 14.9481 114.072 16.2908 115.325 17.7658H115.515V15.9501ZM115.894 27.6373C115.894 23.1742 112.914 19.9215 109.118 19.9215C105.284 19.9215 102.057 23.1742 102.057 27.6373C102.057 32.0434 105.284 35.2394 109.118 35.2394C112.915 35.2585 115.894 32.0434 115.894 27.6373" fill="#3686F7"/>
<path d="M66.4878 27.5426C66.4878 34.8235 60.7938 40.1752 53.8088 40.1752C46.8242 40.1752 41.1299 34.8047 41.1299 27.5426C41.1299 20.2241 46.8242 14.8913 53.8088 14.8913C60.7938 14.8913 66.4878 20.2241 66.4878 27.5426ZM60.9455 27.5426C60.9455 23.0042 57.6427 19.8835 53.8088 19.8835C49.975 19.8835 46.6721 23.0042 46.6721 27.5426C46.6721 32.0434 49.975 35.2017 53.8088 35.2017C57.643 35.2017 60.9455 32.0434 60.9455 27.5426Z" fill="#FF302F"/>
<path d="M94.1804 27.5994C94.1804 34.8803 88.4861 40.2319 81.5015 40.2319C74.5165 40.2319 68.8225 34.88 68.8225 27.5994C68.8225 20.2809 74.5165 14.9669 81.5015 14.9669C88.4861 14.9669 94.1804 20.2621 94.1804 27.5994ZM88.619 27.5994C88.619 23.061 85.3165 19.9403 81.4823 19.9403C77.6481 19.9403 74.3456 23.061 74.3456 27.5994C74.3456 32.1002 77.6484 35.2585 81.4823 35.2585C85.3354 35.2585 88.619 32.0813 88.619 27.5994Z" fill="#FFBA40"/>
<path d="M20.2893 34.6911C12.3363 34.6911 6.11093 28.2991 6.11093 20.3753C6.11093 12.4518 12.3363 6.05977 20.2893 6.05977C24.579 6.05977 27.7105 7.74277 30.0262 9.89874L33.8415 6.09772C30.6148 3.01525 26.3062 0.669861 20.2893 0.669861C9.39455 0.670164 0.226807 9.52079 0.226807 20.3753C0.226807 31.2298 9.39455 40.0807 20.2893 40.0807C26.1734 40.0807 30.6148 38.1518 34.0883 34.5588C37.6564 31.0033 38.7573 26.0108 38.7573 21.9639C38.7573 20.6968 38.6055 19.392 38.4346 18.4276H20.2893V23.6848H33.215C32.8354 26.9755 31.7915 29.2259 30.2541 30.7574C28.3939 32.6299 25.4522 34.6911 20.2893 34.6911Z" fill="#3686F7"/>
</g>
<defs>
<clipPath id="clip0_12257_903">
<rect width="156" height="51" fill="white" transform="translate(0 0.591553)"/>
</clipPath>
</defs>
</svg>
